<?xml version="1.0" standalone="no"?>
<!DOCTYPE svg PUBLIC "-//W3C//DTD SVG 20010904//EN"
 "http://www.w3.org/TR/2001/REC-SVG-20010904/DTD/svg10.dtd">
<svg version="1.0" xmlns="http://www.w3.org/2000/svg"
 width="512.000000pt" height="512.000000pt" viewBox="0 0 512.000000 512.000000"
 preserveAspectRatio="xMidYMid meet">

<g transform="translate(0.000000,512.000000) scale(0.100000,-0.100000)"
fill="#000000" stroke="none">
<path d="M1845 5014 c-480 -23 -1083 -78 -1206 -109 -94 -24 -254 -107 -335
-174 -126 -105 -226 -263 -276 -436 l-23 -80 0 -1850 0 -1850 23 -65 c26 -77
65 -138 128 -202 161 -164 394 -202 610 -101 112 52 245 210 269 320 3 18 9
33 12 33 2 0 70 -18 150 -40 496 -136 857 -185 1363 -185 506 0 867 49 1363
185 80 22 148 40 150 40 3 0 9 -15 12 -33 24 -110 157 -268 269 -320 126 -59
284 -72 399 -33 155 54 287 184 339 336 l23 65 0 1850 0 1850 -23 80 c-72 249
-225 436 -447 545 -132 65 -184 77 -464 106 -750 78 -1625 103 -2336 68z
m1375 -174 c474 -22 1098 -77 1215 -106 237 -60 424 -250 485 -491 20 -76 20
-114 18 -1898 l-3 -1820 -26 -55 c-33 -70 -99 -136 -169 -169 -47 -22 -69 -26
-150 -26 -82 0 -103 4 -150 26 -69 33 -133 97 -168 169 l-27 55 -5 1742 -5
1743 -26 25 c-24 24 -36 27 -225 45 -429 41 -1016 70 -1429 70 -408 0 -981
-28 -1419 -70 -189 -18 -201 -20 -225 -45 l-26 -25 -5 -1743 -5 -1742 -28 -56
c-37 -76 -117 -150 -192 -178 -82 -31 -196 -27 -275 10 -70 33 -136 99 -169
169 l-26 55 -3 1820 c-2 1784 -2 1822 18 1898 61 241 248 431 485 491 111 28
746 84 1180 105 251 12 1107 12 1355 1z m220 -894 c124 -8 314 -23 423 -32
l197 -17 0 -1607 0 -1607 -107 -31 c-490 -142 -921 -206 -1393 -206 -474 0
-901 63 -1392 206 l-108 31 0 1609 c0 1547 1 1608 18 1608 10 0 122 9 248 19
196 17 422 31 709 45 190 9 1197 -4 1405 -18z"/>
</g>
</svg>
